<svg width="236" height="68" viewBox="0 0 236 68" fill="none" xmlns="http://www.w3.org/2000/svg">
<path d="M31.347 49L31.347 22.9101C31.347 15.0756 36.0249 13.2501 40.855 13.2501L40.855 17.6617C37.6983 17.8519 35.9108 18.8027 35.9108 22.9101V26.9415H41.2353V30.9729H35.9108L35.9108 49H31.347ZM44.6598 26.9415L49.0715 26.9415L49.2236 29.7939L55.9553 26.1809V30.7067L49.2236 34.3577L49.2236 49H44.6598L44.6598 26.9415ZM75.9263 29.5277L76.0785 26.9415L80.4902 26.9415L80.4902 49H76.0785L75.9263 46.1476L69.4609 49.7606H69.0806C62.5772 49.7606 57.2907 44.4742 57.2907 37.9708C57.2907 31.049 62.5391 26.1809 68.5482 26.1809C71.7428 26.1809 74.2149 27.474 75.9263 29.5277ZM69.0806 45.5011L75.9263 41.5838C75.9263 41.5838 76.3067 40.3668 76.3067 38.237C76.3067 33.7873 73.0739 30.4405 68.5482 30.4405C63.3758 30.4405 61.9686 35.1944 61.9686 37.9708C61.9686 42.0782 65.1633 45.5011 69.0806 45.5011ZM85.6462 26.9415H90.0579L90.21 29.6418L96.6754 26.1809C100.479 26.0288 103.369 27.2458 104.814 30.3264L112.535 26.1809C118.011 25.9527 121.662 28.5389 121.662 35.4987V49H117.099V35.4987C117.099 31.9998 115.539 30.4785 113.067 30.6686L105.803 34.3197V49H101.239V35.4987C101.239 31.9998 99.6419 30.4785 97.1698 30.6686L90.21 34.2056V49H85.6462L85.6462 26.9415ZM136.888 45.5011C140.006 45.5011 141.832 43.7136 143.543 41.5077L147.308 43.4854C145.331 47.2125 141.413 49.7606 136.888 49.7606C130.346 49.7606 125.098 44.4362 125.098 37.9708C125.098 31.4673 130.384 26.1809 136.888 26.1809C142.022 26.1809 146.319 29.7939 147.194 33.9394L130.993 42.6487C132.134 44.4742 134.492 45.5011 136.888 45.5011ZM136.888 30.4405C131.449 30.4405 129.205 35.5367 129.509 38.8075L141.642 32.3801C140.577 31.049 138.713 30.4405 136.888 30.4405Z" fill="white"/>
<path d="M173.131 36.6016V15.1516H177.999V36.6016C177.999 43.8657 172.104 49.7606 164.84 49.7606C157.576 49.7606 151.681 43.8657 151.681 36.6016V15.1516H156.549V36.6016C156.549 41.3556 160.276 45.1968 164.84 45.1968C169.404 45.1968 173.131 41.3556 173.131 36.6016ZM183.151 26.9415H187.563L187.715 29.7939L194.18 26.1809H194.56C201.064 26.1809 206.35 31.4673 206.35 37.9708C206.35 44.6263 201.482 49.7606 195.093 49.7606C191.898 49.7606 189.426 48.4676 187.715 46.4138V60.4096H183.151V26.9415ZM194.56 30.4405L187.715 34.3577C187.715 34.3577 187.334 35.5748 187.334 37.7045C187.334 42.1543 190.567 45.5011 195.093 45.5011C199.657 45.5011 201.672 41.888 201.672 37.9708C201.672 33.1787 198.478 30.4405 194.56 30.4405Z" fill="#A5A5A5"/>
<path d="M74.9735 67.0879C74.1993 67.0879 73.6076 66.9243 73.1984 66.597C72.7893 66.2634 72.5438 65.7566 72.462 65.0768C72.4431 64.9132 72.4777 64.7873 72.5658 64.6992C72.654 64.6048 72.783 64.5576 72.953 64.5576C73.1103 64.5576 73.2268 64.5985 73.3023 64.6803C73.3841 64.7621 73.4376 64.8849 73.4628 65.0485C73.5195 65.4388 73.6611 65.7126 73.8877 65.87C74.1206 66.021 74.4825 66.0966 74.9735 66.0966H78.0704C78.6557 66.0966 79.0586 65.9864 79.2789 65.7661C79.4992 65.5458 79.6093 65.1429 79.6093 64.5576C79.6093 63.9659 79.4992 63.5599 79.2789 63.3396C79.0586 63.1193 78.6557 63.0091 78.0704 63.0091H75.0112C74.193 63.0091 73.5824 62.814 73.1796 62.4237C72.783 62.0272 72.5847 61.4198 72.5847 60.6015C72.5847 59.7643 72.783 59.1506 73.1796 58.7604C73.5761 58.3638 74.1867 58.1655 75.0112 58.1655H77.9759C79.3985 58.1655 80.1884 58.795 80.3458 60.0539C80.371 60.2175 80.3364 60.3466 80.2419 60.441C80.1538 60.5291 80.0279 60.5732 79.8643 60.5732C79.7069 60.5732 79.5873 60.5322 79.5055 60.4504C79.43 60.3686 79.3765 60.249 79.345 60.0916C79.3009 59.7391 79.1719 59.4968 78.9579 59.3646C78.7502 59.2261 78.4228 59.1569 77.9759 59.1569H75.0112C74.4636 59.1569 74.086 59.2576 73.8782 59.459C73.6768 59.6605 73.5761 60.0413 73.5761 60.6015C73.5761 61.1365 73.68 61.5079 73.8877 61.7156C74.0954 61.917 74.4699 62.0177 75.0112 62.0177H78.0704C78.939 62.0177 79.5779 62.2255 79.987 62.6409C80.3962 63.05 80.6007 63.6889 80.6007 64.5576C80.6007 65.4199 80.3962 66.0588 79.987 66.4742C79.5779 66.8834 78.939 67.0879 78.0704 67.0879H74.9735ZM90.6107 67.1068C89.4525 67.1068 88.6059 66.8393 88.0709 66.3043C87.5358 65.7692 87.2683 64.9258 87.2683 63.7739V59.1758H86.1448C85.8112 59.1758 85.6444 59.009 85.6444 58.6754C85.6444 58.3481 85.8112 58.1844 86.1448 58.1844H87.2683V56.1545C87.2683 55.8208 87.432 55.654 87.7593 55.654C88.0929 55.654 88.2597 55.8208 88.2597 56.1545V58.1844H90.6296C90.9569 58.1844 91.1205 58.3481 91.1205 58.6754C91.1205 59.009 90.9569 59.1758 90.6296 59.1758H88.2597V63.7739C88.2597 64.6551 88.4297 65.2657 88.7696 65.6056C89.1158 65.9455 89.7295 66.1154 90.6107 66.1154C90.7932 66.1154 90.9223 66.1563 90.9978 66.2382C91.0796 66.32 91.1205 66.4427 91.1205 66.6064C91.1205 66.94 90.9506 67.1068 90.6107 67.1068ZM104.63 58.1844C104.963 58.1844 105.13 58.3481 105.13 58.6754V66.6064C105.13 66.94 104.963 67.1068 104.63 67.1068C104.302 67.1068 104.139 66.94 104.139 66.6064V65.7094C103.541 66.641 102.458 67.1068 100.891 67.1068H100.362C99.185 67.1068 98.3226 66.833 97.775 66.2854C97.2337 65.7378 96.963 64.8754 96.963 63.6984V58.6754C96.963 58.3481 97.1267 58.1844 97.454 58.1844C97.7876 58.1844 97.9544 58.3481 97.9544 58.6754V63.6984C97.9544 64.5985 98.1306 65.2279 98.4831 65.5867C98.8419 65.9392 99.4682 66.1154 100.362 66.1154H100.891C101.866 66.1154 102.634 65.9581 103.195 65.6433C103.755 65.3286 104.069 64.8471 104.139 64.1988V58.6754C104.139 58.3481 104.302 58.1844 104.63 58.1844ZM115.211 67.1068C114.034 67.1068 113.172 66.833 112.624 66.2854C112.076 65.7378 111.803 64.8754 111.803 63.6984V61.5834C111.803 60.4064 112.076 59.5472 112.624 59.0058C113.172 58.4582 114.034 58.1844 115.211 58.1844H119.167V54.5022C119.167 54.1748 119.334 54.0112 119.667 54.0112C119.995 54.0112 120.158 54.1748 120.158 54.5022V66.6064C120.158 66.94 119.995 67.1068 119.667 67.1068C119.334 67.1068 119.167 66.94 119.167 66.6064V65.7944C118.896 66.2287 118.5 66.556 117.977 66.7764C117.455 66.9967 116.772 67.1068 115.929 67.1068H115.211ZM115.211 66.1154H115.929C116.911 66.1154 117.694 65.9612 118.28 65.6528C118.871 65.3381 119.167 64.8691 119.167 64.246V59.1758H115.211C114.311 59.1758 113.681 59.3552 113.323 59.714C112.97 60.0665 112.794 60.6896 112.794 61.5834V63.6984C112.794 64.5985 112.97 65.2279 113.323 65.5867C113.681 65.9392 114.311 66.1154 115.211 66.1154ZM127.21 56.466C126.776 56.466 126.558 56.2426 126.558 55.7957V55.3708C126.558 54.9365 126.776 54.7193 127.21 54.7193H127.635C128.057 54.7193 128.267 54.9365 128.267 55.3708V55.7957C128.267 56.2426 128.057 56.466 127.635 56.466H127.21ZM127.427 67.1068C127.093 67.1068 126.927 66.94 126.927 66.6064V58.6754C126.927 58.3481 127.093 58.1844 127.427 58.1844C127.754 58.1844 127.918 58.3481 127.918 58.6754V66.6064C127.918 66.94 127.754 67.1068 127.427 67.1068ZM137.997 67.1068C136.82 67.1068 135.958 66.8361 135.41 66.2948C134.863 65.7472 134.589 64.888 134.589 63.7172V61.5834C134.589 60.3938 134.863 59.5283 135.41 58.987C135.958 58.4393 136.82 58.1718 137.997 58.1844H139.546C140.723 58.1844 141.582 58.4582 142.123 59.0058C142.671 59.5472 142.945 60.4064 142.945 61.5834V63.6984C142.945 64.8754 142.671 65.7378 142.123 66.2854C141.582 66.833 140.723 67.1068 139.546 67.1068H137.997ZM135.58 63.7172C135.58 64.6048 135.756 65.2279 136.109 65.5867C136.468 65.9392 137.097 66.1154 137.997 66.1154H139.546C140.446 66.1154 141.072 65.9392 141.425 65.5867C141.777 65.2279 141.953 64.5985 141.953 63.6984V61.5834C141.953 60.6833 141.777 60.057 141.425 59.7045C141.072 59.352 140.446 59.1758 139.546 59.1758H137.997C137.393 59.1695 136.915 59.2419 136.562 59.393C136.21 59.544 135.958 59.7958 135.807 60.1483C135.656 60.5008 135.58 60.9792 135.58 61.5834V63.7172Z" fill="white"/>
</svg>
