<svg width="236" height="68" viewBox="0 0 236 68" fill="none" xmlns="http://www.w3.org/2000/svg">
<path d="M31.347 49L31.347 22.9101C31.347 15.0756 36.0249 13.2501 40.855 13.2501L40.855 17.6617C37.6983 17.8519 35.9108 18.8027 35.9108 22.9101V26.9415H41.2353V30.9729H35.9108L35.9108 49H31.347ZM44.6598 26.9415L49.0715 26.9415L49.2236 29.7939L55.9553 26.1809V30.7067L49.2236 34.3577L49.2236 49H44.6598L44.6598 26.9415ZM75.9263 29.5277L76.0785 26.9415L80.4902 26.9415L80.4902 49H76.0785L75.9263 46.1476L69.4609 49.7606H69.0806C62.5772 49.7606 57.2907 44.4742 57.2907 37.9708C57.2907 31.049 62.5391 26.1809 68.5482 26.1809C71.7428 26.1809 74.2149 27.474 75.9263 29.5277ZM69.0806 45.5011L75.9263 41.5838C75.9263 41.5838 76.3067 40.3668 76.3067 38.237C76.3067 33.7873 73.0739 30.4405 68.5482 30.4405C63.3758 30.4405 61.9686 35.1944 61.9686 37.9708C61.9686 42.0782 65.1633 45.5011 69.0806 45.5011ZM85.6462 26.9415H90.0579L90.21 29.6418L96.6754 26.1809C100.479 26.0288 103.369 27.2458 104.814 30.3264L112.535 26.1809C118.011 25.9527 121.662 28.5389 121.662 35.4987V49H117.099V35.4987C117.099 31.9998 115.539 30.4785 113.067 30.6686L105.803 34.3197V49H101.239V35.4987C101.239 31.9998 99.6419 30.4785 97.1698 30.6686L90.21 34.2056V49H85.6462L85.6462 26.9415ZM136.888 45.5011C140.006 45.5011 141.832 43.7136 143.543 41.5077L147.308 43.4854C145.331 47.2125 141.413 49.7606 136.888 49.7606C130.346 49.7606 125.098 44.4362 125.098 37.9708C125.098 31.4673 130.384 26.1809 136.888 26.1809C142.022 26.1809 146.319 29.7939 147.194 33.9394L130.993 42.6487C132.134 44.4742 134.492 45.5011 136.888 45.5011ZM136.888 30.4405C131.449 30.4405 129.205 35.5367 129.509 38.8075L141.642 32.3801C140.577 31.049 138.713 30.4405 136.888 30.4405Z" fill="#292929"/>
<path d="M173.131 36.6016V15.1516H177.999V36.6016C177.999 43.8657 172.104 49.7606 164.84 49.7606C157.576 49.7606 151.681 43.8657 151.681 36.6016V15.1516H156.549V36.6016C156.549 41.3556 160.276 45.1968 164.84 45.1968C169.404 45.1968 173.131 41.3556 173.131 36.6016ZM183.151 26.9415H187.563L187.715 29.7939L194.18 26.1809H194.56C201.064 26.1809 206.35 31.4673 206.35 37.9708C206.35 44.6263 201.482 49.7606 195.093 49.7606C191.898 49.7606 189.426 48.4676 187.715 46.4138V60.4096H183.151V26.9415ZM194.56 30.4405L187.715 34.3577C187.715 34.3577 187.334 35.5748 187.334 37.7045C187.334 42.1543 190.567 45.5011 195.093 45.5011C199.657 45.5011 201.672 41.888 201.672 37.9708C201.672 33.1787 198.478 30.4405 194.56 30.4405Z" fill="#A5A5A5"/>
<path d="M74.9735 67.0881C74.1993 67.0881 73.6076 66.9244 73.1984 66.5971C72.7893 66.2635 72.5438 65.7568 72.462 65.077C72.4431 64.9133 72.4777 64.7874 72.5658 64.6993C72.654 64.6049 72.783 64.5577 72.953 64.5577C73.1103 64.5577 73.2268 64.5986 73.3023 64.6804C73.3841 64.7622 73.4376 64.885 73.4628 65.0486C73.5195 65.4389 73.6611 65.7127 73.8877 65.8701C74.1206 66.0211 74.4825 66.0967 74.9735 66.0967H78.0704C78.6557 66.0967 79.0586 65.9865 79.2789 65.7662C79.4992 65.5459 79.6093 65.1431 79.6093 64.5577C79.6093 63.966 79.4992 63.56 79.2789 63.3397C79.0586 63.1194 78.6557 63.0092 78.0704 63.0092H75.0112C74.193 63.0092 73.5824 62.8141 73.1796 62.4239C72.783 62.0273 72.5847 61.4199 72.5847 60.6016C72.5847 59.7644 72.783 59.1507 73.1796 58.7605C73.5761 58.3639 74.1867 58.1657 75.0112 58.1657H77.9759C79.3985 58.1657 80.1884 58.7951 80.3458 60.054C80.371 60.2176 80.3364 60.3467 80.2419 60.4411C80.1538 60.5292 80.0279 60.5733 79.8643 60.5733C79.7069 60.5733 79.5873 60.5324 79.5055 60.4505C79.43 60.3687 79.3765 60.2491 79.345 60.0918C79.3009 59.7393 79.1719 59.4969 78.9579 59.3647C78.7502 59.2263 78.4228 59.157 77.9759 59.157H75.0112C74.4636 59.157 74.086 59.2577 73.8782 59.4592C73.6768 59.6606 73.5761 60.0414 73.5761 60.6016C73.5761 61.1366 73.68 61.508 73.8877 61.7157C74.0954 61.9172 74.4699 62.0179 75.0112 62.0179H78.0704C78.939 62.0179 79.5779 62.2256 79.987 62.641C80.3962 63.0502 80.6007 63.689 80.6007 64.5577C80.6007 65.42 80.3962 66.0589 79.987 66.4743C79.5779 66.8835 78.939 67.0881 78.0704 67.0881H74.9735ZM90.6107 67.1069C89.4525 67.1069 88.6059 66.8394 88.0709 66.3044C87.5358 65.7694 87.2683 64.9259 87.2683 63.774V59.1759H86.1448C85.8112 59.1759 85.6444 59.0091 85.6444 58.6755C85.6444 58.3482 85.8112 58.1845 86.1448 58.1845H87.2683V56.1546C87.2683 55.821 87.432 55.6542 87.7593 55.6542C88.0929 55.6542 88.2597 55.821 88.2597 56.1546V58.1845H90.6296C90.9569 58.1845 91.1205 58.3482 91.1205 58.6755C91.1205 59.0091 90.9569 59.1759 90.6296 59.1759H88.2597V63.774C88.2597 64.6552 88.4297 65.2658 88.7696 65.6057C89.1158 65.9456 89.7295 66.1156 90.6107 66.1156C90.7932 66.1156 90.9223 66.1565 90.9978 66.2383C91.0796 66.3201 91.1205 66.4429 91.1205 66.6065C91.1205 66.9401 90.9506 67.1069 90.6107 67.1069ZM104.63 58.1845C104.963 58.1845 105.13 58.3482 105.13 58.6755V66.6065C105.13 66.9401 104.963 67.1069 104.63 67.1069C104.302 67.1069 104.139 66.9401 104.139 66.6065V65.7096C103.541 66.6411 102.458 67.1069 100.891 67.1069H100.362C99.185 67.1069 98.3226 66.8331 97.775 66.2855C97.2337 65.7379 96.963 64.8755 96.963 63.6985V58.6755C96.963 58.3482 97.1267 58.1845 97.454 58.1845C97.7876 58.1845 97.9544 58.3482 97.9544 58.6755V63.6985C97.9544 64.5986 98.1306 65.228 98.4831 65.5868C98.8419 65.9393 99.4682 66.1156 100.362 66.1156H100.891C101.866 66.1156 102.634 65.9582 103.195 65.6435C103.755 65.3287 104.069 64.8472 104.139 64.1989V58.6755C104.139 58.3482 104.302 58.1845 104.63 58.1845ZM115.211 67.1069C114.034 67.1069 113.172 66.8331 112.624 66.2855C112.076 65.7379 111.803 64.8755 111.803 63.6985V61.5835C111.803 60.4065 112.076 59.5473 112.624 59.006C113.172 58.4583 114.034 58.1845 115.211 58.1845H119.167V54.5023C119.167 54.175 119.334 54.0113 119.667 54.0113C119.995 54.0113 120.158 54.175 120.158 54.5023V66.6065C120.158 66.9401 119.995 67.1069 119.667 67.1069C119.334 67.1069 119.167 66.9401 119.167 66.6065V65.7945C118.896 66.2289 118.5 66.5562 117.977 66.7765C117.455 66.9968 116.772 67.1069 115.929 67.1069H115.211ZM115.211 66.1156H115.929C116.911 66.1156 117.694 65.9613 118.28 65.6529C118.871 65.3382 119.167 64.8693 119.167 64.2461V59.1759H115.211C114.311 59.1759 113.681 59.3553 113.323 59.7141C112.97 60.0666 112.794 60.6897 112.794 61.5835V63.6985C112.794 64.5986 112.97 65.228 113.323 65.5868C113.681 65.9393 114.311 66.1156 115.211 66.1156ZM127.21 56.4661C126.776 56.4661 126.558 56.2427 126.558 55.7958V55.3709C126.558 54.9366 126.776 54.7194 127.21 54.7194H127.635C128.057 54.7194 128.267 54.9366 128.267 55.3709V55.7958C128.267 56.2427 128.057 56.4661 127.635 56.4661H127.21ZM127.427 67.1069C127.093 67.1069 126.927 66.9401 126.927 66.6065V58.6755C126.927 58.3482 127.093 58.1845 127.427 58.1845C127.754 58.1845 127.918 58.3482 127.918 58.6755V66.6065C127.918 66.9401 127.754 67.1069 127.427 67.1069ZM137.997 67.1069C136.82 67.1069 135.958 66.8363 135.41 66.2949C134.863 65.7473 134.589 64.8881 134.589 63.7174V61.5835C134.589 60.3939 134.863 59.5284 135.41 58.9871C135.958 58.4395 136.82 58.1719 137.997 58.1845H139.546C140.723 58.1845 141.582 58.4583 142.123 59.006C142.671 59.5473 142.945 60.4065 142.945 61.5835V63.6985C142.945 64.8755 142.671 65.7379 142.123 66.2855C141.582 66.8331 140.723 67.1069 139.546 67.1069H137.997ZM135.58 63.7174C135.58 64.6049 135.756 65.228 136.109 65.5868C136.468 65.9393 137.097 66.1156 137.997 66.1156H139.546C140.446 66.1156 141.072 65.9393 141.425 65.5868C141.777 65.228 141.953 64.5986 141.953 63.6985V61.5835C141.953 60.6834 141.777 60.0571 141.425 59.7046C141.072 59.3522 140.446 59.1759 139.546 59.1759H137.997C137.393 59.1696 136.915 59.242 136.562 59.3931C136.21 59.5441 135.958 59.7959 135.807 60.1484C135.656 60.5009 135.58 60.9793 135.58 61.5835V63.7174Z" fill="#292929"/>
</svg>
