<?xml version="1.0" encoding="UTF-8" standalone="no"?>
<!DOCTYPE svg PUBLIC "-//W3C//DTD SVG 1.1//EN" "http://www.w3.org/Graphics/SVG/1.1/DTD/svg11.dtd">
<svg xmlns="http://www.w3.org/2000/svg" version="1.1" viewBox="0.00 0.00 2100.00 609.00">
<path fill="#7987ff" d="
  M 272.91 239.66
  C 272.96 239.66 273.11 239.64 273.16 239.60
  Q 303.65 209.13 411.26 101.60
  A 1.36 1.33 22.1 0 1 412.21 101.21
  L 438.53 101.21
  A 0.63 0.62 -0.0 0 1 439.16 101.83
  L 439.16 346.36
  A 0.61 0.60 -0.0 0 1 438.55 346.96
  L 412.31 346.96
  A 0.59 0.59 0.0 0 1 411.72 346.37
  L 411.72 140.75
  A 0.27 0.26 67.5 0 0 411.27 140.56
  L 273.11 278.44
  A 0.21 0.21 0.0 0 1 272.99 278.50
  Q 272.95 278.50 272.92 278.50
  Q 272.88 278.50 272.85 278.50
  A 0.21 0.21 0.0 0 1 272.73 278.44
  L 134.50 140.63
  A 0.27 0.26 -67.5 0 0 134.05 140.82
  L 134.15 346.44
  A 0.59 0.59 0.0 0 1 133.56 347.03
  L 107.32 347.04
  A 0.61 0.60 -0.0 0 1 106.71 346.44
  L 106.59 101.91
  A 0.63 0.62 -0.0 0 1 107.22 101.29
  L 133.54 101.28
  A 1.36 1.33 -22.1 0 1 134.49 101.67
  Q 242.15 209.14 272.66 239.60
  C 272.70 239.64 272.85 239.66 272.91 239.66
  Z"
/>
<path fill="#7987ff" d="
  M 470.17 347.01
  A 0.18 0.18 0.0 0 1 470.04 346.70
  Q 578.23 238.52 688.10 128.59
  Q 698.77 117.89 705.03 113.75
  Q 723.56 101.49 746.52 101.32
  Q 764.86 101.19 801.91 101.29
  A 0.26 0.26 0.0 0 1 802.17 101.55
  L 802.18 346.38
  A 0.62 0.62 0.0 0 1 801.56 347.00
  L 775.34 347.00
  A 0.58 0.58 0.0 0 1 774.76 346.42
  L 774.75 129.09
  A 0.43 0.43 0.0 0 0 774.31 128.66
  Q 764.00 128.70 748.47 128.66
  Q 734.12 128.62 722.25 135.53
  Q 717.21 138.46 707.87 147.84
  Q 682.58 173.24 509.13 346.63
  A 1.28 1.26 22.1 0 1 508.23 347.00
  L 470.17 347.01
  Z"
/>
<path fill="#7987ff" d="
  M 1189.13 101.26
  A 0.18 0.18 0.0 0 1 1189.26 101.57
  Q 1081.05 209.75 971.16 319.69
  Q 960.48 330.39 954.22 334.53
  Q 935.69 346.79 912.73 346.96
  Q 894.39 347.09 857.33 346.99
  A 0.26 0.26 0.0 0 1 857.07 346.73
  L 857.07 101.87
  A 0.62 0.62 0.0 0 1 857.69 101.25
  L 883.92 101.25
  A 0.58 0.58 0.0 0 1 884.50 101.83
  L 884.50 319.19
  A 0.43 0.43 0.0 0 0 884.94 319.62
  Q 895.25 319.58 910.78 319.62
  Q 925.13 319.66 937.00 312.75
  Q 942.04 309.82 951.38 300.44
  Q 976.68 275.04 1150.16 101.63
  A 1.28 1.26 22.1 0 1 1151.06 101.26
  L 1189.13 101.26
  Z"
/>
<rect fill="#7987ff" x="1216.56" y="101.24" width="332.50" height="27.44" rx="0.38"/>
<path fill="#7987ff" d="
  M 1758.30 213.18
  Q 1820.58 262.62 1882.87 311.86
  A 0.20 0.20 0.0 0 0 1883.20 311.70
  L 1883.20 101.56
  A 0.26 0.26 0.0 0 1 1883.46 101.30
  L 1910.21 101.30
  A 0.62 0.62 0.0 0 1 1910.83 101.92
  L 1910.83 346.83
  A 0.23 0.22 -0.0 0 1 1910.60 347.05
  L 1883.86 347.05
  A 1.95 1.93 -25.7 0 1 1882.67 346.64
  Q 1766.34 254.43 1742.10 235.18
  Q 1679.82 185.73 1617.53 136.50
  A 0.20 0.20 0.0 0 0 1617.20 136.66
  L 1617.20 346.80
  A 0.26 0.26 0.0 0 1 1616.94 347.06
  L 1590.19 347.06
  A 0.62 0.62 0.0 0 1 1589.57 346.44
  L 1589.57 101.53
  A 0.23 0.22 -0.0 0 1 1589.80 101.31
  L 1616.54 101.31
  A 1.95 1.93 -25.7 0 1 1617.74 101.72
  Q 1734.06 193.93 1758.30 213.18
  Z"
/>
<rect fill="#7987ff" x="1965.68" y="101.26" width="27.44" height="245.74" rx="0.39"/>
<path fill="#7987ff" d="
  M 1244.00 278.73
  Q 1244.00 299.78 1244.13 319.06
  A 0.56 0.56 0.0 0 0 1244.69 319.61
  L 1548.74 319.61
  A 0.33 0.32 0.0 0 1 1549.07 319.93
  L 1549.07 346.49
  A 0.53 0.53 0.0 0 1 1548.54 347.02
  L 1217.26 347.02
  A 0.61 0.61 0.0 0 1 1216.65 346.42
  Q 1216.57 340.17 1216.57 278.73
  Q 1216.57 217.29 1216.65 211.04
  A 0.61 0.61 0.0 0 1 1217.26 210.43
  L 1548.54 210.45
  A 0.53 0.53 0.0 0 1 1549.07 210.98
  L 1549.07 237.54
  A 0.33 0.32 0.0 0 1 1548.74 237.86
  L 1244.69 237.85
  A 0.56 0.56 0.0 0 0 1244.14 238.40
  Q 1244.00 257.68 1244.00 278.73
  Z"
/>
<path fill="#7987ff" d="
  M 702.50 487.71
  Q 723.99 487.71 725.56 487.79
  A 5.34 5.27 52.6 0 1 726.57 487.93
  C 740.29 491.26 742.59 509.27 729.72 515.68
  Q 726.72 517.18 719.61 516.98
  Q 715.83 516.88 666.91 516.96
  A 0.24 0.24 0.0 0 1 666.67 516.72
  L 666.67 511.32
  A 0.24 0.23 90.0 0 1 666.90 511.08
  Q 708.14 511.08 723.74 511.07
  Q 728.18 511.07 730.86 507.10
  C 734.87 501.15 730.55 493.86 723.50 493.48
  Q 722.97 493.45 702.40 493.45
  Q 680.90 493.45 679.34 493.37
  A 5.34 5.27 52.6 0 1 678.33 493.23
  C 664.61 489.90 662.31 471.89 675.18 465.48
  Q 678.18 463.98 685.29 464.18
  Q 689.07 464.28 737.99 464.20
  A 0.24 0.24 0.0 0 1 738.23 464.44
  L 738.23 469.84
  A 0.24 0.23 90.0 0 1 738.00 470.08
  Q 696.76 470.08 681.16 470.09
  Q 676.72 470.09 674.04 474.06
  C 670.03 480.01 674.35 487.30 681.40 487.68
  Q 681.93 487.71 702.50 487.71
  Z"
/>
<path fill="#7987ff" d="
  M 851.72 464.28
  Q 869.56 464.28 887.18 464.28
  A 0.27 0.27 0.0 0 1 887.45 464.55
  L 887.45 469.57
  A 0.43 0.43 0.0 0 1 887.02 470.00
  L 855.24 470.00
  A 0.52 0.51 0.0 0 0 854.72 470.51
  L 854.72 516.38
  A 0.62 0.61 89.8 0 1 854.12 517.00
  Q 853.71 517.00 851.72 517.00
  Q 849.73 517.00 849.33 516.99
  A 0.62 0.61 -89.8 0 1 848.72 516.38
  L 848.73 470.51
  A 0.52 0.51 0.0 0 0 848.21 470.00
  L 816.43 470.00
  A 0.43 0.43 0.0 0 1 816.00 469.57
  L 816.00 464.55
  A 0.27 0.27 0.0 0 1 816.27 464.28
  Q 833.89 464.28 851.72 464.28
  Z"
/>
<path fill="#7987ff" d="
  M 1003.25 511.00
  Q 1021.09 511.00 1022.11 511.00
  Q 1027.43 510.97 1029.09 509.77
  Q 1031.92 507.74 1032.91 504.24
  A 3.02 2.95 53.8 0 0 1033.03 503.40
  L 1033.03 464.53
  A 0.25 0.25 0.0 0 1 1033.28 464.28
  L 1038.74 464.28
  A 0.25 0.24 -90.0 0 1 1038.98 464.53
  Q 1038.98 487.51 1038.98 502.49
  C 1038.98 508.67 1035.08 513.85 1029.56 516.12
  Q 1027.46 516.99 1020.82 516.99
  Q 1016.33 517.00 1003.25 517.00
  Q 990.17 517.00 985.68 516.99
  Q 979.04 516.98 976.94 516.11
  C 971.42 513.84 967.52 508.66 967.53 502.48
  Q 967.53 487.50 967.54 464.52
  A 0.25 0.24 -90.0 0 1 967.78 464.27
  L 973.24 464.27
  A 0.25 0.25 0.0 0 1 973.49 464.52
  L 973.47 503.39
  A 3.02 2.95 -53.8 0 0 973.59 504.23
  Q 974.58 507.73 977.41 509.76
  Q 979.07 510.96 984.39 510.99
  Q 985.41 511.00 1003.25 511.00
  Z"
/>
<path fill="#7987ff" d="
  M 1121.00 516.28
  L 1121.00 488.10
  A 0.38 0.38 0.0 0 1 1121.38 487.72
  L 1126.34 487.72
  A 0.38 0.38 0.0 0 1 1126.72 488.10
  L 1126.72 510.62
  A 0.39 0.39 0.0 0 0 1127.11 511.01
  Q 1160.90 510.98 1162.59 511.02
  Q 1169.85 511.19 1172.82 510.09
  C 1194.77 501.94 1189.03 469.86 1165.49 470.00
  Q 1163.78 470.01 1121.23 469.99
  A 0.22 0.22 0.0 0 1 1121.01 469.77
  L 1121.01 464.53
  A 0.27 0.27 0.0 0 1 1121.28 464.26
  Q 1140.93 464.32 1163.44 464.23
  Q 1171.18 464.20 1175.11 465.68
  C 1198.60 474.53 1198.05 507.51 1174.31 515.72
  Q 1170.49 517.04 1162.93 517.03
  Q 1125.86 516.97 1121.69 516.97
  A 0.69 0.69 0.0 0 1 1121.00 516.28
  Z"
/>
<rect fill="#7987ff" x="1274.00" y="464.28" width="5.72" height="52.70" rx="0.38"/>
<path fill="#7987ff" d="
  M 1433.36 493.54
  A 23.43 23.43 0.0 0 1 1409.93 516.97
  L 1385.23 516.97
  A 23.43 23.43 0.0 0 1 1361.80 493.54
  L 1361.80 487.66
  A 23.43 23.43 0.0 0 1 1385.23 464.23
  L 1409.93 464.23
  A 23.43 23.43 0.0 0 1 1433.36 487.66
  L 1433.36 493.54
  Z
  M 1427.4997 487.5256
  A 17.61 17.61 0.0 0 0 1409.8283 469.9772
  L 1385.2284 470.0631
  A 17.61 17.61 0.0 0 0 1367.6800 487.7344
  L 1367.7003 493.5544
  A 17.61 17.61 0.0 0 0 1385.3717 511.1028
  L 1409.9716 511.0169
  A 17.61 17.61 0.0 0 0 1427.5200 493.3456
  L 1427.4997 487.5256
  Z"
/>
<rect fill="#7987ff" x="443.76" y="489.66" width="165.34" height="3.26" rx="0.36"/>
<rect fill="#7987ff" x="1491.76" y="489.66" width="165.30" height="3.26" rx="0.35"/>
</svg>
