<svg width="151" height="41" viewBox="0 0 151 41" fill="none" xmlns="http://www.w3.org/2000/svg">
<path d="M28.6899 9.02834C30.1534 8.68504 31.5898 8.68504 32.9991 9.02834C34.4085 9.37163 35.6642 9.98595 36.7664 10.8713C37.8866 11.7386 38.79 12.8317 39.4766 14.1507C40.1632 15.4516 40.5065 16.8971 40.5065 18.4871C40.5065 20.059 40.1632 21.5045 39.4766 22.8234C38.8081 24.1424 37.9227 25.2446 36.8206 26.1299C35.7184 26.9972 34.4536 27.6115 33.0262 27.9729C31.6169 28.3162 30.1715 28.3162 28.6899 27.9729C27.7322 27.7561 26.8379 27.4128 26.0067 26.943C25.1756 26.4552 24.4348 25.8679 23.7843 25.1814C23.4952 24.9826 23.1971 24.829 22.89 24.7206C22.6009 24.6122 22.2756 24.5399 21.9143 24.5038C21.4445 24.5399 21.0109 24.6574 20.6134 24.8561C20.2339 25.0549 19.8545 25.2898 19.4751 25.5608C19.0956 25.8318 18.6981 26.1209 18.2826 26.4281C17.885 26.7352 17.4333 27.0243 16.9274 27.2953C16.4215 27.5483 15.8524 27.7651 15.22 27.9458C14.5876 28.1084 13.8468 28.1897 12.9976 28.1897C11.6605 28.1897 10.3958 27.9368 9.20326 27.4309C8.02882 26.9249 6.99893 26.2383 6.11359 25.3711C5.24631 24.4857 4.55972 23.4558 4.0538 22.2814C3.54789 21.0889 3.29494 19.8241 3.29494 18.4871C3.29494 17.15 3.54789 15.8943 4.0538 14.7198C4.55972 13.5454 5.24631 12.5155 6.11359 11.6302C6.99893 10.7448 8.02882 10.0492 9.20326 9.54328C10.3958 9.03737 11.6605 8.78442 12.9976 8.78442C13.8468 8.78442 14.5876 8.87476 15.22 9.05544C15.8524 9.21805 16.4215 9.43487 16.9274 9.7059C17.4333 9.95885 17.885 10.2479 18.2826 10.5732C18.6981 10.8803 19.0956 11.1694 19.4751 11.4404C19.8545 11.7115 20.2339 11.9464 20.6134 12.1451C21.0109 12.3258 21.4445 12.4342 21.9143 12.4703C22.2756 12.4523 22.6009 12.389 22.89 12.2806C23.1971 12.1541 23.4952 12.0006 23.7843 11.8199C24.4348 11.1333 25.1756 10.5551 26.0067 10.0853C26.8379 9.59749 27.7322 9.24516 28.6899 9.02834ZM21.4535 15.9394C20.8031 15.9033 20.2339 15.7859 19.7461 15.5871C19.2582 15.3703 18.8065 15.1264 18.391 14.8553C17.9935 14.5663 17.614 14.2681 17.2527 13.961C16.8913 13.6357 16.5028 13.3376 16.0873 13.0666C15.6898 12.7956 15.2381 12.5787 14.7321 12.4161C14.2443 12.2355 13.6661 12.1451 12.9976 12.1451C12.1303 12.1451 11.3082 12.3168 10.5313 12.6601C9.77241 12.9853 9.10388 13.437 8.5257 14.0152C7.94751 14.5934 7.48677 15.2709 7.14348 16.0479C6.81825 16.8067 6.65563 17.6198 6.65563 18.4871C6.65563 19.3543 6.81825 20.1764 7.14348 20.9534C7.48677 21.7122 7.94751 22.3808 8.5257 22.959C9.10388 23.5371 9.77241 23.9979 10.5313 24.3412C11.3082 24.6664 12.1303 24.829 12.9976 24.829C13.6661 24.829 14.2443 24.7477 14.7321 24.5851C15.2381 24.4044 15.6898 24.1786 16.0873 23.9075C16.5028 23.6365 16.8913 23.3474 17.2527 23.0403C17.614 22.715 17.9935 22.4169 18.391 22.1459C18.8065 21.8749 19.2582 21.64 19.7461 21.4412C20.2339 21.2244 20.8031 21.0979 21.4535 21.0618C20.9838 19.3634 20.9838 17.6559 21.4535 15.9394ZM30.6412 24.829C31.5266 24.8652 32.3577 24.7206 33.1347 24.3954C33.9297 24.0521 34.6253 23.5913 35.2215 23.0132C35.8178 22.435 36.2876 21.7574 36.6309 20.9805C36.9742 20.2036 37.1458 19.3724 37.1458 18.4871C37.1458 17.6198 36.9742 16.8067 36.6309 16.0479C36.3056 15.2709 35.863 14.6024 35.3028 14.0423C34.7427 13.4641 34.0832 13.0124 33.3244 12.6872C32.5836 12.3439 31.7976 12.1722 30.9665 12.1722C30.1353 12.1722 29.2861 12.3529 28.4188 12.7143C27.5696 13.0576 26.7475 13.6357 25.9525 14.4488C25.4647 14.9728 25.0943 15.5961 24.8413 16.3189C24.6064 17.0235 24.489 17.7553 24.489 18.5142C24.489 19.273 24.6155 20.0138 24.8684 20.7366C25.1214 21.4412 25.5008 22.0646 26.0067 22.6066C26.5849 23.1667 27.2715 23.6727 28.0665 24.1244C28.8615 24.5761 29.7198 24.811 30.6412 24.829ZM41.8523 28V24.6393L48.7092 24.6393C49.5584 24.6393 50.3534 24.4767 51.0942 24.1515C51.8531 23.8262 52.5035 23.3926 53.0456 22.8505C53.6057 22.2904 54.0484 21.64 54.3736 20.8992C54.6988 20.1403 54.8614 19.3363 54.8614 18.4871C54.8614 17.6379 54.6988 16.8429 54.3736 16.1021C54.0484 15.3432 53.6057 14.6927 53.0456 14.1507C52.5035 13.5906 51.8531 13.1479 51.0942 12.8227C50.3534 12.4974 49.5584 12.3348 48.7092 12.3348H41.8523V8.97413H48.7092C50.0282 8.97413 51.2659 9.22709 52.4222 9.733C53.5786 10.2208 54.5814 10.8984 55.4306 11.7657C56.2979 12.6149 56.9754 13.6177 57.4633 14.774C57.9692 15.9304 58.2221 17.1681 58.2221 18.4871C58.2221 19.788 57.9692 21.0166 57.4633 22.173C56.9754 23.3294 56.3069 24.3412 55.4577 25.2085C54.6085 26.0577 53.6057 26.7352 52.4493 27.2411C51.311 27.729 50.0914 27.9819 48.7905 28L41.8523 28ZM59.58 9.02834H62.9407L62.9407 22.444C62.9407 23.1667 63.013 23.7359 63.1575 24.1515C63.3021 24.567 63.6092 24.7748 64.079 24.7748C64.4584 24.7748 64.8288 24.6483 65.1902 24.3954C65.5516 24.1424 65.8858 23.8353 66.193 23.4739C66.5001 23.1125 66.7712 22.7421 67.0061 22.3627C67.259 21.9652 67.4668 21.64 67.6294 21.387L75.6517 9.02834H79.6629L71.6406 21.387C70.954 22.453 70.3035 23.4107 69.6892 24.2599C69.0929 25.091 68.4786 25.7957 67.8462 26.3739C67.2319 26.952 66.5634 27.3947 65.8407 27.7019C65.136 27.991 64.3229 28.1355 63.4014 28.1355C62.2631 28.1355 61.3417 27.6386 60.637 26.6449C59.9323 25.6511 59.58 24.2508 59.58 22.444L59.58 9.02834ZM81.0131 9.00124H84.3738V28H81.0131V9.00124ZM101.303 8.97413V12.3348L91.3021 12.3348C90.8142 12.3348 90.4077 12.4432 90.0825 12.6601C89.7572 12.8769 89.5133 13.1569 89.3507 13.5002C89.1881 13.8255 89.1068 14.1868 89.1068 14.5843C89.1068 14.9638 89.1881 15.3251 89.3507 15.6684C89.5133 15.9936 89.7572 16.2647 90.0825 16.4815C90.4077 16.6983 90.8142 16.8067 91.3021 16.8067H97.5356C98.3125 16.8067 99.0353 16.9513 99.7038 17.2404C100.39 17.5294 100.987 17.927 101.493 18.4329C101.998 18.9388 102.396 19.535 102.685 20.2216C102.992 20.8901 103.146 21.6129 103.146 22.3898C103.146 23.1667 102.992 23.8985 102.685 24.5851C102.396 25.2536 101.998 25.8408 101.493 26.3468C100.987 26.8527 100.39 27.2592 99.7038 27.5664C99.0353 27.8555 98.3125 28 97.5356 28H87.0199V24.6393H97.5356C98.0234 24.6393 98.43 24.5309 98.7552 24.3141C99.0985 24.0973 99.3515 23.8262 99.5141 23.501C99.6767 23.1577 99.758 22.7963 99.758 22.4169C99.758 22.0194 99.6767 21.658 99.5141 21.3328C99.3515 20.9895 99.0985 20.7095 98.7552 20.4926C98.43 20.2758 98.0234 20.1674 97.5356 20.1674H91.1665C90.4077 20.1493 89.694 19.9958 89.0255 19.7067C88.375 19.3995 87.7968 18.993 87.2909 18.4871C86.8031 17.9812 86.4146 17.3939 86.1255 16.7254C85.8545 16.0388 85.719 15.3161 85.719 14.5572C85.719 13.7803 85.8635 13.0576 86.1526 12.389C86.4417 11.7024 86.8392 11.1062 87.3451 10.6003C87.851 10.0944 88.4382 9.69686 89.1068 9.40777C89.7934 9.11868 90.5251 8.97413 91.3021 8.97413L101.303 8.97413ZM104.505 9.00124H107.866V28H104.505V9.00124ZM118.226 8.78442C119.563 8.78442 120.819 9.03737 121.993 9.54328C123.167 10.0492 124.197 10.7448 125.083 11.6302C125.968 12.4974 126.664 13.5273 127.17 14.7198C127.675 15.8943 127.928 17.15 127.928 18.4871C127.928 19.8241 127.675 21.0799 127.17 22.2543C126.664 23.4287 125.968 24.4586 125.083 25.344C124.197 26.2293 123.167 26.9249 121.993 27.4309C120.819 27.9368 119.563 28.1897 118.226 28.1897C116.889 28.1897 115.624 27.9368 114.431 27.4309C113.257 26.9249 112.227 26.2293 111.342 25.344C110.474 24.4586 109.788 23.4287 109.282 22.2543C108.776 21.0799 108.523 19.8241 108.523 18.4871C108.523 17.15 108.776 15.8943 109.282 14.7198C109.788 13.5273 110.474 12.4974 111.342 11.6302C112.227 10.7448 113.257 10.0492 114.431 9.54328C115.624 9.03737 116.889 8.78442 118.226 8.78442ZM118.226 24.829C119.093 24.829 119.906 24.6664 120.665 24.3412C121.442 23.9979 122.119 23.5371 122.698 22.959C123.276 22.3627 123.728 21.6851 124.053 20.9263C124.396 20.1493 124.568 19.3272 124.568 18.46C124.568 17.5927 124.396 16.7796 124.053 16.0208C123.728 15.2438 123.276 14.5753 122.698 14.0152C122.119 13.437 121.442 12.9853 120.665 12.6601C119.906 12.3168 119.093 12.1451 118.226 12.1451C117.358 12.1451 116.536 12.3168 115.759 12.6601C115.001 12.9853 114.332 13.437 113.754 14.0152C113.176 14.5753 112.715 15.2438 112.372 16.0208C112.046 16.7796 111.884 17.5927 111.884 18.46C111.884 19.3272 112.046 20.1493 112.372 20.9263C112.715 21.6851 113.176 22.3627 113.754 22.959C114.332 23.5371 115.001 23.9979 115.759 24.3412C116.536 24.6664 117.358 24.829 118.226 24.829ZM147.697 22.3898C147.697 23.4378 147.58 24.3231 147.345 25.0458C147.11 25.7505 146.821 26.3287 146.477 26.7804C146.134 27.214 145.764 27.5302 145.366 27.729C144.969 27.9097 144.607 28 144.282 28C143.614 28 143.035 27.9187 142.548 27.7561C142.06 27.5935 141.599 27.2953 141.165 26.8617C140.732 26.4281 140.289 25.8228 139.837 25.0458C139.404 24.2689 138.898 23.2661 138.32 22.0375L135.609 16.346C135.465 16.0569 135.293 15.6955 135.094 15.2619C134.896 14.8102 134.679 14.3765 134.444 13.961C134.227 13.5273 134.001 13.1569 133.766 12.8498C133.55 12.5426 133.351 12.371 133.17 12.3348C133.008 12.2987 132.872 12.4432 132.764 12.7685C132.673 13.0937 132.637 13.6899 132.655 14.5572V28H129.295V14.5572C129.295 13.5093 129.412 12.633 129.647 11.9283C129.882 11.2056 130.162 10.6274 130.487 10.1937C130.83 9.7601 131.201 9.45294 131.598 9.27226C131.996 9.07351 132.357 8.97413 132.682 8.97413C133.351 8.97413 133.929 9.05544 134.417 9.21805C134.905 9.38067 135.365 9.6788 135.799 10.1124C136.233 10.5461 136.666 11.1514 137.1 11.9283C137.552 12.6872 138.067 13.6809 138.645 14.9096L141.463 20.8179C141.626 21.1792 141.807 21.5858 142.006 22.0375C142.222 22.4711 142.439 22.8867 142.656 23.2842C142.891 23.6636 143.108 23.9888 143.306 24.2599C143.523 24.5128 143.713 24.6393 143.876 24.6393C144.038 24.6212 144.156 24.4496 144.228 24.1244C144.318 23.7811 144.354 23.2029 144.336 22.3898V8.97413L147.697 8.97413V22.3898Z" fill="#E5E7EB"/>
<path d="M54.1905 39.0958C53.7527 39.0958 53.418 39.0032 53.1866 38.8181C52.9552 38.6294 52.8164 38.3428 52.7701 37.9584C52.7594 37.8658 52.779 37.7946 52.8288 37.7448C52.8787 37.6914 52.9517 37.6647 53.0478 37.6647C53.1368 37.6647 53.2026 37.6878 53.2454 37.7341C53.2916 37.7804 53.3219 37.8498 53.3361 37.9423C53.3682 38.1631 53.4483 38.3179 53.5764 38.4069C53.7082 38.4923 53.9129 38.5351 54.1905 38.5351H55.942C56.2731 38.5351 56.501 38.4728 56.6256 38.3482C56.7502 38.2236 56.8125 37.9957 56.8125 37.6647C56.8125 37.33 56.7502 37.1004 56.6256 36.9758C56.501 36.8512 56.2731 36.7889 55.942 36.7889H54.2119C53.7491 36.7889 53.4038 36.6785 53.1759 36.4578C52.9517 36.2335 52.8395 35.89 52.8395 35.4272C52.8395 34.9537 52.9517 34.6066 53.1759 34.3859C53.4002 34.1616 53.7455 34.0495 54.2119 34.0495H55.8886C56.6932 34.0495 57.14 34.4055 57.229 35.1175C57.2432 35.21 57.2236 35.283 57.1702 35.3364C57.1204 35.3863 57.0492 35.4112 56.9566 35.4112C56.8676 35.4112 56.8 35.388 56.7537 35.3418C56.711 35.2955 56.6807 35.2278 56.6629 35.1388C56.638 34.9395 56.565 34.8024 56.444 34.7277C56.3265 34.6493 56.1414 34.6102 55.8886 34.6102H54.2119C53.9022 34.6102 53.6886 34.6671 53.5711 34.7811C53.4572 34.895 53.4002 35.1104 53.4002 35.4272C53.4002 35.7298 53.459 35.9398 53.5764 36.0573C53.6939 36.1712 53.9057 36.2282 54.2119 36.2282H55.942C56.4333 36.2282 56.7947 36.3457 57.0261 36.5806C57.2575 36.812 57.3732 37.1734 57.3732 37.6647C57.3732 38.1524 57.2575 38.5137 57.0261 38.7487C56.7947 38.9801 56.4333 39.0958 55.942 39.0958H54.1905ZM63.0345 39.1064C62.3795 39.1064 61.9007 38.9551 61.5981 38.6525C61.2955 38.3499 61.1442 37.8729 61.1442 37.2214V34.6209H60.5087C60.32 34.6209 60.2257 34.5265 60.2257 34.3379C60.2257 34.1527 60.32 34.0602 60.5087 34.0602H61.1442V32.9121C61.1442 32.7234 61.2367 32.6291 61.4219 32.6291C61.6105 32.6291 61.7049 32.7234 61.7049 32.9121V34.0602H63.0452C63.2303 34.0602 63.3229 34.1527 63.3229 34.3379C63.3229 34.5265 63.2303 34.6209 63.0452 34.6209H61.7049V37.2214C61.7049 37.7198 61.801 38.0652 61.9932 38.2574C62.189 38.4496 62.5361 38.5457 63.0345 38.5457C63.1378 38.5457 63.2108 38.5689 63.2535 38.6152C63.2998 38.6614 63.3229 38.7309 63.3229 38.8234C63.3229 39.0121 63.2268 39.1064 63.0345 39.1064ZM70.9633 34.0602C71.152 34.0602 71.2463 34.1527 71.2463 34.3379V38.8234C71.2463 39.0121 71.152 39.1064 70.9633 39.1064C70.7782 39.1064 70.6856 39.0121 70.6856 38.8234V38.3161C70.3474 38.843 69.7351 39.1064 68.8487 39.1064H68.5496C67.8839 39.1064 67.3962 38.9516 67.0865 38.6419C66.7803 38.3321 66.6272 37.8444 66.6272 37.1787V34.3379C66.6272 34.1527 66.7198 34.0602 66.9049 34.0602C67.0936 34.0602 67.1879 34.1527 67.1879 34.3379V37.1787C67.1879 37.6878 67.2876 38.0438 67.487 38.2467C67.6899 38.4461 68.0441 38.5457 68.5496 38.5457H68.8487C69.4005 38.5457 69.8348 38.4567 70.1516 38.2787C70.4685 38.1008 70.6465 37.8284 70.6856 37.4617V34.3379C70.6856 34.1527 70.7782 34.0602 70.9633 34.0602ZM76.9478 39.1064C76.2821 39.1064 75.7944 38.9516 75.4847 38.6419C75.175 38.3321 75.0201 37.8444 75.0201 37.1787V35.9826C75.0201 35.3168 75.175 34.8309 75.4847 34.5247C75.7944 34.215 76.2821 34.0602 76.9478 34.0602L79.1853 34.0602V31.9776C79.1853 31.7925 79.2796 31.6999 79.4683 31.6999C79.6534 31.6999 79.746 31.7925 79.746 31.9776V38.8234C79.746 39.0121 79.6534 39.1064 79.4683 39.1064C79.2796 39.1064 79.1853 39.0121 79.1853 38.8234V38.3642C79.0322 38.6098 78.8079 38.7949 78.5124 38.9195C78.217 39.0441 77.8307 39.1064 77.3537 39.1064H76.9478ZM76.9478 38.5457H77.3537C77.909 38.5457 78.3522 38.4585 78.6833 38.2841C79.018 38.1061 79.1853 37.8409 79.1853 37.4884V34.6209L76.9478 34.6209C76.4388 34.6209 76.0828 34.7223 75.8798 34.9252C75.6805 35.1246 75.5808 35.477 75.5808 35.9826V37.1787C75.5808 37.6878 75.6805 38.0438 75.8798 38.2467C76.0828 38.4461 76.4388 38.5457 76.9478 38.5457ZM83.7341 33.0883C83.4885 33.0883 83.3656 32.9619 83.3656 32.7092V32.4689C83.3656 32.2232 83.4885 32.1004 83.7341 32.1004H83.9744C84.2129 32.1004 84.3322 32.2232 84.3322 32.4689V32.7092C84.3322 32.9619 84.2129 33.0883 83.9744 33.0883H83.7341ZM83.8569 39.1064C83.6682 39.1064 83.5739 39.0121 83.5739 38.8234V34.3379C83.5739 34.1527 83.6682 34.0602 83.8569 34.0602C84.042 34.0602 84.1346 34.1527 84.1346 34.3379V38.8234C84.1346 39.0121 84.042 39.1064 83.8569 39.1064ZM89.8351 39.1064C89.1694 39.1064 88.6817 38.9534 88.3719 38.6472C88.0622 38.3375 87.9074 37.8516 87.9074 37.1894V35.9826C87.9074 35.3097 88.0622 34.8202 88.3719 34.5141C88.6817 34.2044 89.1694 34.0531 89.8351 34.0602H90.7109C91.3766 34.0602 91.8625 34.215 92.1687 34.5247C92.4784 34.8309 92.6332 35.3168 92.6332 35.9826V37.1787C92.6332 37.8444 92.4784 38.3321 92.1687 38.6419C91.8625 38.9516 91.3766 39.1064 90.7109 39.1064H89.8351ZM88.4681 37.1894C88.4681 37.6914 88.5677 38.0438 88.7671 38.2467C88.97 38.4461 89.326 38.5457 89.8351 38.5457H90.7109C91.2199 38.5457 91.5742 38.4461 91.7735 38.2467C91.9729 38.0438 92.0725 37.6878 92.0725 37.1787V35.9826C92.0725 35.4735 91.9729 35.1193 91.7735 34.9199C91.5742 34.7205 91.2199 34.6209 90.7109 34.6209H89.8351C89.4933 34.6173 89.2228 34.6582 89.0234 34.7437C88.8241 34.8291 88.6817 34.9715 88.5962 35.1709C88.5108 35.3702 88.4681 35.6408 88.4681 35.9826V37.1894Z" fill="white"/>
<path d="M32.5164 18.0983C32.5164 19.0354 31.7567 19.7951 30.8197 19.7951C29.8826 19.7951 29.123 19.0354 29.123 18.0983C29.123 17.1613 29.8826 16.4016 30.8197 16.4016C31.7567 16.4016 32.5164 17.1613 32.5164 18.0983Z" fill="#E5E7EB"/>
</svg>
